<?xml version="1.0" encoding="utf-8"?>
<!-- Generator: Adobe Illustrator 16.0.0, SVG Export Plug-In . SVG Version: 6.00 Build 0)  -->
<!DOCTYPE svg PUBLIC "-//W3C//DTD SVG 1.1//EN" "http://www.w3.org/Graphics/SVG/1.1/DTD/svg11.dtd">
<svg version="1.1" id="Layer_1" xmlns="http://www.w3.org/2000/svg" xmlns:xlink="http://www.w3.org/1999/xlink" x="0px" y="0px"
	 width="140px" height="140px" viewBox="0 0 140 140" enable-background="new 0 0 140 140" xml:space="preserve">
<g>
	<g>
		<path fill="#FFFFFF" stroke="#666666" stroke-width="0.5" stroke-miterlimit="10" d="M138.594,138.415
			c-3.928,3.907-7.712-5.258-13.254-5.258s-5.542,6.152-11.085,6.152c-5.544,0-5.544-6.152-11.087-6.152s-5.543,6.152-11.084,6.152
			c-5.545,0-5.545-6.152-11.087-6.152c-5.543,0-5.543,6.152-11.087,6.152s-5.544-6.152-11.088-6.152
			c-5.542,0-5.542,6.152-11.084,6.152c-5.544,0-5.544-6.152-11.088-6.152c-5.543,0-5.543,6.152-11.086,6.152
			c-5.546,0-5.546-6.152-11.092-6.152c-5.546,0-9.327,9.167-13.262,5.259c-3.909-3.883,5.244-7.691,5.244-13.202
			c0-5.51-6.152-5.51-6.152-11.021c0-5.511,6.152-5.511,6.152-11.022c0-5.509-6.152-5.509-6.152-11.021s6.152-5.512,6.152-11.022
			s-6.152-5.511-6.152-11.022c0-5.511,6.152-5.511,6.152-11.023c0-5.51-6.152-5.51-6.152-11.021c0-5.512,6.152-5.512,6.152-11.024
			c0-5.51-6.152-5.51-6.152-11.021c0-5.514,6.152-5.514,6.152-11.029c0-5.515-9.154-9.319-5.245-13.209
			C5.139-2.13,8.921,7.036,14.463,7.036s5.542-6.152,11.085-6.152c5.543,0,5.543,6.152,11.087,6.152
			c5.542,0,5.542-6.152,11.085-6.152c5.544,0,5.544,6.152,11.085,6.152c5.544,0,5.544-6.152,11.087-6.152
			c5.544,0,5.544,6.152,11.087,6.152s5.543-6.152,11.085-6.152c5.546,0,5.546,6.152,11.09,6.152c5.542,0,5.542-6.152,11.084-6.152
			c5.547,0,5.547,6.152,11.093,6.152s9.325-9.167,13.261-5.259c3.909,3.884-5.244,7.691-5.244,13.203
			c0,5.509,6.151,5.509,6.151,11.021c0,5.51-6.151,5.51-6.151,11.022c0,5.51,6.151,5.51,6.151,11.02
			c0,5.511-6.151,5.511-6.151,11.022c0,5.512,6.151,5.512,6.151,11.023c0,5.512-6.151,5.512-6.151,11.022s6.151,5.511,6.151,11.021
			c0,5.512-6.151,5.512-6.151,11.024c0,5.511,6.151,5.511,6.151,11.021c0,5.513-7.602,6.624-6.023,11.907
			C135.521,132.928,142.502,134.525,138.594,138.415z"/>
	</g>
	<rect x="12" y="13" fill="#F78631" width="115" height="114"/>
	<g>
		<polygon fill="#FFFFFF" points="97.729,28.824 60.531,65.369 42.443,46.959 32.674,56.557 60.361,84.736 107.326,38.595 		"/>
	</g>
	<rect x="12" y="94" fill="#666666" width="115" height="33"/>
	<g>
		<path fill="#FFFFFF" d="M32.672,103.208c-0.126,0.203-0.258,0.353-0.397,0.453c-0.139,0.103-0.318,0.154-0.537,0.154
			c-0.194,0-0.403-0.062-0.626-0.184s-0.477-0.261-0.758-0.41c-0.282-0.152-0.604-0.29-0.967-0.412
			c-0.361-0.122-0.775-0.184-1.238-0.184c-0.8,0-1.396,0.172-1.789,0.513c-0.392,0.341-0.587,0.801-0.587,1.383
			c0,0.37,0.117,0.678,0.353,0.923c0.236,0.244,0.546,0.455,0.929,0.633c0.384,0.176,0.822,0.34,1.314,0.485
			c0.493,0.147,0.996,0.312,1.51,0.493c0.514,0.182,1.018,0.395,1.511,0.637c0.493,0.245,0.931,0.559,1.315,0.937
			c0.382,0.379,0.692,0.839,0.929,1.385c0.235,0.543,0.354,1.197,0.354,1.965c0,0.85-0.148,1.646-0.443,2.388
			c-0.295,0.742-0.723,1.389-1.283,1.941c-0.56,0.55-1.25,0.983-2.073,1.302c-0.822,0.313-1.754,0.473-2.799,0.473
			c-0.573,0-1.157-0.059-1.75-0.177c-0.593-0.119-1.168-0.284-1.726-0.499c-0.555-0.213-1.078-0.47-1.567-0.766
			c-0.488-0.294-0.913-0.623-1.276-0.986l1.264-1.996c0.101-0.142,0.233-0.262,0.398-0.36c0.165-0.095,0.342-0.145,0.536-0.145
			c0.252,0,0.508,0.081,0.764,0.241c0.258,0.159,0.548,0.337,0.872,0.53c0.325,0.193,0.698,0.371,1.119,0.53
			c0.421,0.16,0.918,0.239,1.491,0.239c0.775,0,1.377-0.17,1.807-0.511c0.429-0.342,0.644-0.882,0.644-1.623
			c0-0.433-0.117-0.781-0.354-1.05c-0.234-0.271-0.545-0.493-0.928-0.671c-0.384-0.175-0.821-0.331-1.308-0.467
			c-0.49-0.135-0.991-0.284-1.505-0.448c-0.514-0.163-1.016-0.366-1.503-0.607c-0.49-0.24-0.925-0.556-1.31-0.948
			c-0.382-0.391-0.692-0.88-0.928-1.466c-0.237-0.585-0.354-1.306-0.354-2.167c0-0.69,0.139-1.365,0.417-2.021
			c0.278-0.657,0.687-1.243,1.226-1.758c0.54-0.513,1.2-0.923,1.984-1.23c0.783-0.308,1.68-0.461,2.692-0.461
			c0.564,0,1.113,0.043,1.648,0.132c0.535,0.089,1.044,0.219,1.523,0.393c0.481,0.171,0.929,0.379,1.346,0.619
			c0.417,0.238,0.79,0.511,1.118,0.814L32.672,103.208z"/>
		<path fill="#FFFFFF" d="M35.832,104.725c0.135-0.919,0.393-1.72,0.777-2.4c0.384-0.683,0.86-1.253,1.428-1.706
			c0.57-0.456,1.22-0.795,1.954-1.018c0.733-0.225,1.521-0.335,2.363-0.335c0.91,0,1.719,0.128,2.427,0.384
			c0.708,0.259,1.306,0.605,1.794,1.044c0.489,0.438,0.86,0.946,1.112,1.522c0.252,0.578,0.378,1.186,0.378,1.826
			c0,0.58-0.059,1.093-0.176,1.534c-0.118,0.444-0.293,0.826-0.523,1.152c-0.233,0.323-0.519,0.598-0.861,0.82
			c-0.34,0.225-0.73,0.41-1.168,0.562c2.039,0.716,3.058,2.106,3.058,4.172c0,0.976-0.177,1.828-0.532,2.552
			c-0.354,0.726-0.828,1.327-1.421,1.807c-0.595,0.481-1.283,0.84-2.067,1.081c-0.783,0.24-1.601,0.36-2.451,0.36
			c-0.877,0-1.655-0.095-2.337-0.285c-0.683-0.188-1.29-0.483-1.82-0.884c-0.53-0.398-0.996-0.911-1.396-1.534
			c-0.4-0.624-0.749-1.365-1.042-2.226l1.743-0.708c0.455-0.177,0.877-0.223,1.264-0.138c0.387,0.083,0.665,0.276,0.833,0.58
			c0.378,0.7,0.781,1.207,1.207,1.522c0.425,0.315,0.925,0.476,1.498,0.476c0.438,0,0.819-0.073,1.144-0.224
			c0.325-0.146,0.595-0.335,0.809-0.567c0.215-0.231,0.378-0.493,0.487-0.789c0.108-0.296,0.164-0.594,0.164-0.897
			c0-0.396-0.027-0.753-0.082-1.069c-0.055-0.315-0.209-0.587-0.462-0.814c-0.252-0.227-0.634-0.402-1.144-0.524
			s-1.219-0.184-2.129-0.184v-2.704c0.767,0,1.386-0.059,1.858-0.177c0.472-0.116,0.836-0.28,1.094-0.487
			c0.255-0.205,0.427-0.456,0.511-0.752c0.084-0.294,0.126-0.619,0.126-0.972c0-0.726-0.175-1.282-0.525-1.675
			c-0.349-0.393-0.882-0.588-1.598-0.588c-0.581,0-1.072,0.154-1.473,0.462s-0.676,0.688-0.827,1.144
			c-0.178,0.464-0.409,0.771-0.695,0.921c-0.286,0.152-0.695,0.186-1.226,0.101L35.832,104.725z"/>
		<path fill="#FFFFFF" d="M67.679,99.467l-7.38,18.414h-3.867l-7.38-18.414h3.438c0.371,0,0.669,0.086,0.896,0.26
			c0.228,0.172,0.4,0.393,0.519,0.663l3.564,9.857c0.169,0.43,0.333,0.898,0.492,1.408c0.161,0.511,0.312,1.043,0.456,1.599
			c0.117-0.556,0.25-1.088,0.398-1.599c0.147-0.51,0.305-0.979,0.473-1.408l3.54-9.857c0.091-0.235,0.258-0.448,0.499-0.638
			c0.24-0.191,0.537-0.285,0.891-0.285H67.679z"/>
		<path fill="#FFFFFF" d="M69.789,112.029c0.126,1.095,0.459,1.89,0.999,2.381c0.538,0.493,1.234,0.741,2.086,0.741
			c0.454,0,0.847-0.057,1.174-0.165c0.328-0.108,0.621-0.231,0.879-0.367c0.256-0.134,0.492-0.257,0.708-0.367
			c0.215-0.108,0.439-0.163,0.676-0.163c0.312,0,0.547,0.114,0.708,0.341l1.137,1.402c-0.403,0.464-0.841,0.84-1.309,1.132
			c-0.468,0.29-0.947,0.517-1.439,0.683c-0.493,0.164-0.986,0.276-1.479,0.341c-0.494,0.063-0.965,0.095-1.409,0.095
			c-0.919,0-1.78-0.149-2.585-0.449c-0.805-0.298-1.508-0.744-2.11-1.333c-0.603-0.59-1.079-1.321-1.428-2.199
			c-0.349-0.876-0.524-1.896-0.524-3.06c0-0.873,0.149-1.703,0.449-2.486c0.299-0.785,0.729-1.472,1.29-2.062
			c0.559-0.59,1.237-1.057,2.034-1.404c0.796-0.345,1.696-0.517,2.698-0.517c0.867,0,1.663,0.135,2.383,0.404
			c0.72,0.269,1.339,0.661,1.856,1.176c0.519,0.513,0.923,1.144,1.214,1.89c0.29,0.745,0.437,1.589,0.437,2.534
			c0,0.294-0.013,0.534-0.039,0.72c-0.024,0.186-0.07,0.333-0.139,0.441c-0.067,0.11-0.157,0.186-0.271,0.229
			c-0.113,0.041-0.259,0.062-0.436,0.062H69.789z M74.719,109.754c0-0.312-0.04-0.613-0.121-0.909
			c-0.079-0.296-0.21-0.559-0.391-0.791c-0.182-0.231-0.42-0.418-0.715-0.562c-0.295-0.142-0.653-0.215-1.074-0.215
			c-0.741,0-1.323,0.213-1.745,0.639c-0.421,0.427-0.7,1.038-0.834,1.839H74.719z"/>
		<path fill="#FFFFFF" d="M83.855,106.797c0.403-0.708,0.869-1.264,1.395-1.668c0.527-0.404,1.132-0.607,1.814-0.607
			c0.59,0,1.07,0.14,1.44,0.418l-0.253,2.881c-0.042,0.186-0.111,0.312-0.209,0.379c-0.097,0.067-0.229,0.101-0.396,0.101
			c-0.066,0-0.156-0.004-0.265-0.012c-0.111-0.008-0.225-0.018-0.343-0.031s-0.238-0.025-0.359-0.038
			c-0.122-0.014-0.234-0.02-0.336-0.02c-0.572,0-1.03,0.152-1.37,0.454c-0.343,0.306-0.631,0.726-0.866,1.266v7.962h-3.919v-13.105
			h2.326c0.193,0,0.356,0.016,0.487,0.05c0.13,0.033,0.239,0.087,0.327,0.157c0.089,0.073,0.157,0.166,0.202,0.286
			c0.048,0.116,0.087,0.261,0.122,0.428L83.855,106.797z"/>
		<path fill="#FFFFFF" d="M94.243,101.187c0,0.312-0.064,0.604-0.19,0.877c-0.125,0.274-0.3,0.515-0.518,0.72
			c-0.22,0.208-0.474,0.371-0.766,0.493c-0.291,0.123-0.6,0.184-0.928,0.184c-0.321,0-0.619-0.061-0.898-0.184
			c-0.277-0.122-0.523-0.285-0.738-0.493c-0.216-0.205-0.384-0.445-0.506-0.72c-0.123-0.273-0.184-0.565-0.184-0.877
			c0-0.32,0.061-0.62,0.184-0.897c0.122-0.278,0.29-0.522,0.506-0.734c0.215-0.211,0.461-0.374,0.738-0.492
			c0.279-0.119,0.577-0.178,0.898-0.178c0.328,0,0.637,0.059,0.928,0.178c0.292,0.118,0.546,0.281,0.766,0.492
			c0.218,0.212,0.393,0.456,0.518,0.734C94.179,100.566,94.243,100.866,94.243,101.187z M93.839,104.775v13.105H89.92v-13.105
			H93.839z"/>
		<path fill="#FFFFFF" d="M115.12,104c-0.228,0-0.438,0.509-0.633,0.64c-0.193,0.132-0.329,0.516-0.404,0.71l-1.946,5.732
			c-0.102,0.262-0.197,0.584-0.291,0.854c-0.093,0.27-0.185,0.565-0.277,0.837c-0.127-0.54-0.29-1.053-0.492-1.566l-2.149-5.643
			c-0.075-0.186-0.195-0.785-0.359-0.919c-0.165-0.136-0.398-0.645-0.701-0.645H101v0.278c0-0.43,0.219-0.786,0.311-1.068
			c0.096-0.282,0.315-0.509,0.495-0.682c0.183-0.174,0.452-0.293,0.722-0.361c0.27-0.067,0.6-0.102,0.944-0.102
			c0.111,0,0.229-0.012,0.34-0.037c0.108-0.024,0.217-0.065,0.313-0.12c0.098-0.056,0.18-0.126,0.237-0.214
			c0.06-0.089,0.095-0.2,0.103-0.336l0.076-1.908c-0.294-0.084-0.576-0.146-0.847-0.183c-0.269-0.039-0.563-0.057-0.884-0.057
			c-0.824,0-1.562,0.117-2.212,0.354c-0.648,0.235-1.198,0.568-1.649,0.997c-0.45,0.432-1.074,0.948-1.313,1.556
			c-0.24,0.605-0.636,1.284-0.636,2.034V104h-2v2.439c0,0.279,0.443,0.488,0.627,0.632c0.18,0.144,0.317,0.247,0.613,0.314
			l0.76,0.178V118h4v-10h4.579l4.056,9.48l-2.528,5.52h2.933c0.37,0,0.641-0.485,0.81-0.607c0.168-0.123,0.312-0.971,0.43-1.231
			l7-17.161H115.12z"/>
	</g>
</g>
</svg>
